<svg preserveAspectRatio="none" overflow="visible" style="display: block;" width="12.9474" height="12.9474" viewBox="0 0 12.9474 12.9474" fill="none" xmlns="http://www.w3.org/2000/svg">
<g id="Group 43">
<path id="Vector" d="M3.31579 5.21053V9.63158" stroke="#F08519" stroke-width="0.947368" stroke-linecap="round" stroke-linejoin="round"/>
<path id="Vector_2" d="M5.84211 7.10526V9.63158M5.84211 7.10526C5.84211 6.0588 6.69038 5.21053 7.73684 5.21053C8.78331 5.21053 9.63158 6.0588 9.63158 7.10526V9.63158M5.84211 7.10526V5.21053" stroke="#F08519" stroke-width="0.947368" stroke-linecap="round" stroke-linejoin="round"/>
<path id="Vector_3" d="M3.32065 3.31579H3.31497" stroke="#F08519" stroke-width="1.26316" stroke-linecap="round" stroke-linejoin="round"/>
<path id="Vector_4" d="M0.473685 6.47368C0.473685 3.64526 0.473684 2.23105 1.35236 1.35236C2.23105 0.473684 3.64526 0.473685 6.47368 0.473685C9.30208 0.473685 10.7163 0.473684 11.595 1.35236C12.4737 2.23105 12.4737 3.64526 12.4737 6.47368C12.4737 9.30208 12.4737 10.7163 11.595 11.595C10.7163 12.4737 9.30208 12.4737 6.47368 12.4737C3.64526 12.4737 2.23105 12.4737 1.35236 11.595C0.473684 10.7163 0.473685 9.30208 0.473685 6.47368Z" stroke="#F08519" stroke-width="0.947368" stroke-linejoin="round"/>
</g>
</svg>
